<svg width="258" height="190" viewBox="0 0 258 190" fill="none" xmlns="http://www.w3.org/2000/svg">
<path d="M57.5712 52.6051L9.64453 84.665L56.8521 155.236L104.779 123.176L57.5712 52.6051Z" fill="#F5F5F5"/>
<path d="M80.0135 119.839L79.471 123.205L55.6445 119.77L56.187 116.404L80.0135 119.839Z" fill="#E0E0E0"/>
<path d="M68.0138 107.831L71.431 108.322L67.6422 131.781L64.2207 131.286L68.0138 107.831Z" fill="#E0E0E0"/>
<path d="M46.0892 78.0157C46.1234 78.0627 41.3222 81.339 35.3635 85.32C29.4047 89.3011 24.548 92.4962 24.5139 92.4449C24.4797 92.3936 29.2809 89.1217 35.2396 85.1364C41.1984 81.151 46.0337 77.9645 46.0892 78.0157Z" fill="#E0E0E0"/>
<path d="M63.6964 73.5907C63.7306 73.642 55.7429 79.0411 45.8586 85.6534C35.9743 92.2657 27.9183 97.5838 27.8926 97.5368C27.867 97.4898 35.8376 92.0821 45.7347 85.4698C55.6318 78.8575 63.6623 73.5394 63.6964 73.5907Z" fill="#E0E0E0"/>
<path d="M67.2277 78.87C67.2619 78.9213 59.2741 84.3247 49.3899 90.937C39.5056 97.5493 31.4495 102.867 31.4239 102.816C31.3983 102.765 39.3774 97.3656 49.266 90.7491C59.1545 84.1325 67.1935 78.8187 67.2277 78.87Z" fill="#E0E0E0"/>
<path d="M70.7606 84.1542C70.7947 84.2054 62.807 89.6089 52.9228 96.2169C43.0385 102.825 34.9824 108.152 34.9824 108.1C34.9824 108.049 42.9317 102.646 52.8202 96.0332C62.7088 89.4209 70.7264 84.1029 70.7606 84.1542Z" fill="#E0E0E0"/>
<path d="M74.28 89.4379C74.3142 89.4891 66.3265 94.8883 56.4422 101.501C46.5579 108.113 38.5019 113.431 38.4805 113.38C38.4592 113.328 46.4426 107.929 56.3397 101.317C66.2368 94.7046 74.28 89.3866 74.28 89.4379Z" fill="#E0E0E0"/>
<path d="M217.831 99.8927L177.58 126.818L217.226 186.084L257.476 159.159L217.831 99.8927Z" fill="#F5F5F5"/>
<path d="M236.684 156.368L236.227 159.196L216.215 156.313L216.676 153.485L236.684 156.368Z" fill="#E0E0E0"/>
<path d="M226.604 146.283L229.475 146.698L226.293 166.398L223.418 165.983L226.604 146.283Z" fill="#E0E0E0"/>
<path d="M208.173 121.265C208.207 121.316 204.179 124.071 199.173 127.416C194.167 130.761 190.083 133.435 190.049 133.396C190.015 133.358 194.047 130.594 199.049 127.245C204.051 123.896 208.139 121.192 208.173 121.265Z" fill="#E0E0E0"/>
<path d="M222.978 117.527C223.012 117.579 216.31 122.123 208.027 127.672C199.745 133.221 192.966 137.689 192.932 137.638C192.898 137.586 199.6 133.041 207.882 127.488C216.165 121.935 222.931 117.476 222.978 117.527Z" fill="#E0E0E0"/>
<path d="M225.942 121.961C225.977 122.013 219.275 126.557 210.992 132.11C202.71 137.663 195.931 142.123 195.897 142.072C195.862 142.02 202.543 137.497 210.847 131.944C219.151 126.391 225.917 121.914 225.942 121.961Z" fill="#E0E0E0"/>
<path d="M228.909 126.391C228.943 126.442 222.237 130.987 213.959 136.54C205.681 142.093 198.898 146.552 198.863 146.501C198.829 146.45 205.531 141.909 213.814 136.352C222.096 130.795 228.879 126.348 228.909 126.391Z" fill="#E0E0E0"/>
<path d="M231.899 130.837C231.934 130.889 225.232 135.429 216.949 140.982C208.667 146.535 201.888 150.995 201.854 150.948C201.819 150.901 208.521 146.351 216.804 140.799C225.086 135.246 231.844 130.786 231.899 130.837Z" fill="#E0E0E0"/>
<path d="M154.153 55.2017L110.234 31.7119L75.6464 96.3808L119.565 119.871L154.153 55.2017Z" fill="#F5F5F5"/>
<path d="M112.048 99.6385L109.263 100.591L102.189 81.0403L104.979 80.0835L112.048 99.6385Z" fill="#E0E0E0"/>
<path d="M116.321 85.6108L117.337 88.4172L97.919 95.068L96.9023 92.2616L116.321 85.6108Z" fill="#E0E0E0"/>
<path d="M130.117 56.7652C130.083 56.8293 125.632 54.5141 120.168 51.5967C114.705 48.6792 110.31 46.2573 110.344 46.1932C110.378 46.1291 114.833 48.4443 120.297 51.3617C125.76 54.2792 130.151 56.6968 130.117 56.7652Z" fill="#E0E0E0"/>
<path d="M140.661 68.3963C140.627 68.4604 133.254 64.5818 124.194 59.7379C115.134 54.894 107.821 50.913 107.856 50.8489C107.89 50.7849 115.258 54.6591 124.318 59.5073C133.378 64.3554 140.695 68.3322 140.661 68.3963Z" fill="#E0E0E0"/>
<path d="M138.071 73.2361C138.037 73.3002 130.664 69.4259 121.604 64.5778C112.544 59.7296 105.232 55.7528 105.266 55.6888C105.3 55.6247 112.668 59.5032 121.728 64.3471C130.788 69.191 138.105 73.1721 138.071 73.2361Z" fill="#E0E0E0"/>
<path d="M135.483 78.0759C135.449 78.14 128.076 74.2658 119.016 69.4219C109.957 64.578 102.644 60.6097 102.678 60.5329C102.712 60.456 110.08 64.343 119.14 69.1869C128.2 74.0308 135.517 78.0119 135.483 78.0759Z" fill="#E0E0E0"/>
<path d="M132.895 82.9155C132.861 82.9795 125.488 79.1053 116.429 74.2614C107.369 69.4175 100.052 65.4364 100.09 65.3724C100.128 65.3083 107.493 69.1826 116.552 74.0264C125.612 78.8703 132.929 82.8514 132.895 82.9155Z" fill="#E0E0E0"/>
<path opacity="0.2" d="M133.122 0.381348H132.02V19.1674H133.122V0.381348Z" fill="black"/>
<path d="M106.842 41.8959H158.296C158.296 41.8959 153.546 19.1758 132.18 19.1758C113.176 19.1758 106.842 41.8959 106.842 41.8959Z" fill="#B8DCFA"/>
<path d="M133.122 0.381348H132.02V19.1674H133.122V0.381348Z" fill="#B8DCFA"/>
<path d="M247.135 188.255C247.135 188.315 191.925 188.366 123.833 188.366C55.7412 188.366 0.523438 188.328 0.523438 188.255C0.523438 188.182 55.7241 188.144 123.833 188.144C191.943 188.144 247.135 188.191 247.135 188.255Z" fill="#263238"/>
<path d="M14.1756 161.502C14.8978 161.554 15.6021 161.751 16.2464 162.082C16.8908 162.412 17.462 162.869 17.926 163.425C18.8486 164.543 19.5018 165.858 19.8353 167.269C20.5572 169.968 20.113 173.159 19.3441 175.846C16.4224 174.8 14.6156 171.681 13.7912 170.041C12.5097 167.453 11.7451 161.985 14.1628 161.498" fill="#B8DCFA"/>
<path d="M23.5504 179.122C23.1117 178.442 22.8608 177.657 22.8233 176.849C22.7858 176.04 22.963 175.236 23.3368 174.517C23.7224 173.806 24.2459 173.179 24.8766 172.672C25.5073 172.165 26.2327 171.789 27.0103 171.566C27.7237 171.344 28.5523 171.254 29.1717 171.668C29.4509 171.88 29.6684 172.162 29.8013 172.486C29.9343 172.809 29.978 173.163 29.9278 173.509C29.8157 174.203 29.5208 174.855 29.0735 175.397C27.6511 177.324 25.9254 178.926 23.5205 179.122" fill="#B8DCFA"/>
<path d="M23.8778 188.148C23.8144 187.966 23.77 187.779 23.7453 187.588C23.6685 187.187 23.5659 186.67 23.4421 186.05C23.0586 184.354 22.9519 182.608 23.126 180.878C23.3274 179.139 23.9895 177.486 25.0439 176.089C25.366 175.671 25.7375 175.294 26.1502 174.966C26.2623 174.877 26.3793 174.794 26.5005 174.718C26.539 174.686 26.5822 174.66 26.6286 174.641C26.0883 175.103 25.5947 175.616 25.1549 176.175C24.1562 177.573 23.5273 179.201 23.3267 180.907C23.0534 182.898 23.3908 184.722 23.5873 186.033C23.6898 186.687 23.7752 187.216 23.8222 187.584C23.8559 187.77 23.8744 187.958 23.8778 188.148Z" fill="#263238"/>
<path d="M15.1152 165.616C15.164 165.683 15.2042 165.756 15.2348 165.834C15.3117 166.004 15.4142 166.218 15.5338 166.487C15.7944 167.055 16.1575 167.88 16.5974 168.901C17.4774 170.947 18.6563 173.791 19.8865 176.961C21.1167 180.13 22.1632 183.022 22.8766 185.128C23.2439 186.179 23.5301 187.033 23.7309 187.627C23.8206 187.909 23.8889 188.135 23.9444 188.31C23.9749 188.389 23.9964 188.47 24.0085 188.554C23.9652 188.481 23.9308 188.404 23.906 188.323C23.8419 188.152 23.7608 187.93 23.654 187.652L22.7527 185.175C21.9881 183.086 20.9202 180.199 19.6943 177.033C18.4684 173.868 17.3065 171.015 16.4608 168.956C16.0336 167.944 15.7047 167.119 15.4612 166.517C15.3502 166.244 15.2605 166.026 15.1921 165.851C15.16 165.775 15.1343 165.696 15.1152 165.616Z" fill="#263238"/>
<path d="M20.4032 182.177C19.5243 180.713 18.3097 179.48 16.8598 178.579C15.41 177.678 13.7665 177.135 12.0652 176.995C11.2109 176.936 10.1601 177.081 9.77571 177.85C9.39127 178.619 9.90385 179.558 10.4933 180.182C11.7458 181.492 13.358 182.402 15.1269 182.798C16.8958 183.193 18.7421 183.056 20.4331 182.403" fill="#B8DCFA"/>
<path d="M13.3809 179.31C13.562 179.301 13.7435 179.309 13.9234 179.332C14.1339 179.343 14.3436 179.367 14.5513 179.404C14.7947 179.451 15.0809 179.477 15.3799 179.562C15.7142 179.633 16.0437 179.724 16.3667 179.836C16.7408 179.956 17.1074 180.099 17.4644 180.263C18.2856 180.631 19.0623 181.091 19.7796 181.634C20.4886 182.19 21.1307 182.827 21.6932 183.531C21.9361 183.837 22.1601 184.158 22.3639 184.492C22.548 184.78 22.7163 185.078 22.8679 185.384C22.9962 185.634 23.1103 185.891 23.2096 186.153C23.2953 186.348 23.368 186.547 23.4275 186.751C23.4907 186.922 23.5379 187.098 23.5684 187.277C23.5214 187.277 23.3164 186.542 22.7398 185.449C22.5827 185.155 22.4102 184.87 22.2229 184.594C22.0147 184.271 21.7894 183.958 21.548 183.659C20.4308 182.278 19.006 181.178 17.3876 180.447C17.0159 180.284 16.6614 180.131 16.3154 180.019C15.9978 179.904 15.6741 179.805 15.3458 179.725C14.1497 179.396 13.3766 179.357 13.3809 179.31Z" fill="#263238"/>
<path d="M207.278 45.4373C206.023 45.7235 205.412 47.1715 205.292 48.453C205.173 49.7344 205.335 51.0928 204.797 52.2632C204.19 53.5788 202.742 54.5527 202.695 56.0007C202.665 56.8849 203.191 57.7093 203.165 58.6021C203.122 60.0544 201.644 61.165 201.563 62.6002C201.508 63.6467 202.204 64.6463 202.037 65.68C201.909 66.483 201.281 67.1152 201.016 67.8841C200.491 69.4218 201.546 71.1091 202.917 71.9719C203.685 72.4549 204.55 72.7643 205.45 72.8785C206.35 72.9927 207.264 72.909 208.129 72.6332C208.993 72.3574 209.787 71.8961 210.455 71.2817C211.122 70.6673 211.648 69.9144 211.994 69.0758C212.754 67.2305 212.588 65.1503 212.421 63.1641C211.909 56.9675 211.527 50.7625 211.277 44.5488" fill="#263238"/>
<path d="M203.631 67.2985C203.889 67.1379 204.091 66.9003 204.208 66.6193C204.331 66.285 204.38 65.928 204.353 65.5728C204.306 65.1018 204.201 64.6384 204.041 64.1931C203.837 63.6333 203.761 63.0348 203.819 62.4417C203.926 61.7754 204.404 61.2286 204.835 60.6904C205.068 60.427 205.262 60.1322 205.412 59.8148C205.563 59.4937 205.587 59.1278 205.48 58.7896C205.258 58.0934 204.575 57.5808 204.263 56.7735C204.116 56.3738 204.093 55.9395 204.195 55.5262C204.292 55.1387 204.435 54.7643 204.622 54.4113C204.983 53.7755 205.269 53.1005 205.476 52.3994C205.775 51.0454 205.634 49.7511 205.839 48.6875C205.953 47.8356 206.331 47.0409 206.92 46.415C207.087 46.2465 207.276 46.1026 207.484 45.9879C207.555 45.9507 207.631 45.9234 207.71 45.9067C207.442 46.0541 207.197 46.2381 206.98 46.4535C206.434 47.0856 206.09 47.8667 205.993 48.696C205.918 49.2626 205.878 49.8332 205.873 50.4046C205.872 51.0772 205.806 51.748 205.677 52.408C205.473 53.1251 205.186 53.8161 204.823 54.4668C204.502 55.1375 204.208 55.9234 204.489 56.6581C204.771 57.3928 205.451 57.9011 205.711 58.6871C205.829 59.0754 205.8 59.4933 205.63 59.8618C205.463 60.2111 205.248 60.5348 204.989 60.8228C204.562 61.3611 204.096 61.8736 203.994 62.4716C203.934 63.0389 204.001 63.6123 204.19 64.1503C204.343 64.6095 204.438 65.0859 204.472 65.5685C204.493 65.9402 204.428 66.3116 204.28 66.6535C204.188 66.8677 204.041 67.0536 203.853 67.1917C203.786 67.2406 203.711 67.2768 203.631 67.2985Z" fill="#455A64"/>
<path d="M200.29 77.4268L196.446 88.5327L180.368 89.387L177.686 95.3671L194.473 97.0757C195.266 97.4013 196.117 97.5628 196.974 97.5503C197.831 97.5378 198.677 97.3517 199.46 97.0031C200.244 96.6546 200.948 96.1509 201.531 95.5224C202.114 94.894 202.564 94.1538 202.853 93.3467L207.334 80.8397L200.29 77.4268Z" fill="#B78876"/>
<path d="M233.527 182.22C233.527 182.22 221.746 144.793 221.494 143.58C221.268 142.478 225.766 115.546 226.338 108.553L210.418 109.147V109.305L203.652 109.681L209.709 186.192H217.035L216.309 160.798C220.828 172.925 227.304 185.287 227.304 185.287L233.527 182.22Z" fill="#B78876"/>
<path d="M216.607 169.909C216.607 169.678 216.517 161.4 216.517 161.4C216.427 161.896 213.71 154.215 213.775 153.75C213.809 153.506 216.607 169.909 216.607 169.909Z" fill="#A36957"/>
<path d="M213.467 150.11C213.429 150.263 213.414 150.419 213.42 150.576C213.396 151.003 213.396 151.431 213.42 151.857C213.42 152.127 213.458 152.417 213.493 152.733C213.527 153.049 213.574 153.382 213.646 153.728C213.798 154.484 214 155.229 214.249 155.958C214.778 157.509 215.368 158.863 215.782 159.845C215.979 160.272 216.15 160.678 216.295 161.003C216.347 161.154 216.419 161.297 216.508 161.43C216.486 161.282 216.442 161.138 216.38 161.003C216.282 160.721 216.132 160.315 215.953 159.815C215.577 158.816 215.013 157.449 214.488 155.915C214.239 155.197 214.035 154.463 213.877 153.72C213.8 153.378 213.749 153.049 213.702 152.742C213.655 152.434 213.621 152.144 213.599 151.887C213.548 151.358 213.527 150.93 213.514 150.631C213.522 150.456 213.506 150.281 213.467 150.11Z" fill="#A36957"/>
<path d="M209.572 186.581V185.893L217.077 185.564L217.098 188.405L216.637 188.434C214.574 188.554 206.15 188.904 204.775 188.49C203.233 188.029 209.572 186.581 209.572 186.581Z" fill="#455A64"/>
<path d="M217.197 188.234C217.154 188.237 217.111 188.237 217.069 188.234L216.701 188.26L215.343 188.319C214.198 188.366 212.613 188.409 210.866 188.418C209.119 188.426 207.53 188.396 206.381 188.362L205.027 188.307H204.655H204.527C204.57 188.303 204.613 188.303 204.655 188.307H205.027L206.385 188.332C207.53 188.332 209.115 188.366 210.862 188.358C212.609 188.349 214.198 188.319 215.343 188.289L216.701 188.255H217.197V188.234Z" fill="#263238"/>
<path d="M207.126 188.473C207.064 188.249 206.978 188.033 206.87 187.828C206.735 187.639 206.579 187.465 206.404 187.311C206.637 187.394 206.831 187.562 206.947 187.781C207.088 187.982 207.152 188.228 207.126 188.473Z" fill="#263238"/>
<path d="M209.336 187.35C209.336 187.35 209.212 187.234 209.101 187.064C208.99 186.893 208.922 186.743 208.943 186.73C208.965 186.718 209.067 186.841 209.178 187.012C209.289 187.183 209.358 187.337 209.336 187.35Z" fill="#263238"/>
<path d="M209.945 187.046C209.945 187.067 209.808 186.986 209.68 186.871C209.552 186.756 209.458 186.649 209.475 186.632C209.492 186.615 209.611 186.692 209.739 186.807C209.868 186.922 209.962 187.008 209.945 187.046Z" fill="#263238"/>
<path d="M210.325 186.32C210.199 186.366 210.065 186.384 209.932 186.371C209.801 186.389 209.668 186.376 209.543 186.333C209.667 186.287 209.8 186.27 209.932 186.282C210.064 186.264 210.198 186.277 210.325 186.32Z" fill="#263238"/>
<path d="M210.452 185.825C210.325 185.907 210.177 185.952 210.025 185.953C209.88 185.972 209.732 185.951 209.598 185.893C209.739 185.869 209.882 185.858 210.025 185.859C210.166 185.834 210.309 185.822 210.452 185.825Z" fill="#263238"/>
<path d="M209.086 186.696C208.926 186.726 208.762 186.726 208.603 186.696C208.43 186.675 208.26 186.638 208.095 186.585C207.992 186.557 207.893 186.517 207.8 186.466C207.743 186.432 207.7 186.379 207.68 186.316C207.672 186.281 207.675 186.243 207.688 186.209C207.701 186.175 207.723 186.146 207.753 186.124C207.871 186.067 208.001 186.036 208.132 186.035C208.264 186.034 208.394 186.062 208.513 186.117C208.632 186.172 208.738 186.253 208.822 186.354C208.906 186.455 208.967 186.573 209 186.701C209.009 186.743 209.009 186.786 209 186.829C208.952 186.674 208.877 186.53 208.778 186.402C208.664 186.274 208.516 186.182 208.351 186.137C208.162 186.076 207.956 186.091 207.778 186.18C207.706 186.235 207.736 186.325 207.817 186.376C207.904 186.423 207.996 186.462 208.09 186.491C208.251 186.544 208.415 186.586 208.581 186.615C208.902 186.684 209.086 186.684 209.086 186.696Z" fill="#263238"/>
<path d="M208.96 186.722C208.898 186.623 208.876 186.503 208.9 186.389C208.916 186.263 208.961 186.143 209.033 186.038C209.073 185.967 209.13 185.907 209.199 185.864C209.269 185.82 209.348 185.795 209.43 185.791C209.478 185.802 209.521 185.831 209.548 185.872C209.576 185.913 209.587 185.964 209.579 186.013C209.569 186.089 209.541 186.162 209.498 186.226C209.433 186.332 209.357 186.431 209.272 186.521C209.198 186.606 209.104 186.672 208.998 186.713C208.998 186.713 209.092 186.628 209.225 186.474C209.302 186.386 209.369 186.29 209.426 186.188C209.49 186.085 209.537 185.902 209.426 185.88C209.315 185.859 209.186 185.991 209.114 186.085C209.046 186.178 208.999 186.284 208.977 186.397C208.96 186.504 208.954 186.613 208.96 186.722Z" fill="#263238"/>
<path d="M217.038 186.192C217.038 186.192 216.824 186.192 216.487 186.213C216.048 186.266 215.632 186.441 215.287 186.718C214.942 186.995 214.681 187.363 214.535 187.781C214.424 188.101 214.415 188.319 214.398 188.315C214.381 188.311 214.398 188.259 214.398 188.165C214.409 188.028 214.435 187.892 214.475 187.76C214.611 187.322 214.872 186.935 215.227 186.645C215.586 186.36 216.022 186.189 216.478 186.153C216.62 186.136 216.764 186.136 216.906 186.153C216.951 186.16 216.996 186.173 217.038 186.192Z" fill="#263238"/>
<path d="M213.446 187.636C213.088 187.719 212.721 187.755 212.353 187.743C211.987 187.761 211.621 187.729 211.264 187.649C211.264 187.623 211.751 187.649 212.353 187.649C212.955 187.649 213.442 187.61 213.446 187.636Z" fill="#263238"/>
<path d="M214.907 187.623C214.907 187.623 214.869 187.726 214.817 187.837C214.766 187.948 214.74 188.05 214.715 188.046C214.689 188.042 214.676 187.931 214.736 187.798C214.796 187.666 214.89 187.602 214.907 187.623Z" fill="#263238"/>
<path d="M215.459 186.935C215.459 186.935 215.429 187.029 215.352 187.106C215.275 187.183 215.198 187.234 215.177 187.217C215.155 187.2 215.207 187.123 215.284 187.042C215.36 186.961 215.437 186.914 215.459 186.935Z" fill="#263238"/>
<path d="M216.243 186.619C216.243 186.645 216.141 186.645 216.03 186.683C215.919 186.722 215.842 186.781 215.82 186.764C215.799 186.747 215.863 186.645 216 186.598C216.137 186.551 216.252 186.593 216.243 186.619Z" fill="#263238"/>
<path d="M216.804 186.465C216.804 186.491 216.775 186.529 216.711 186.55C216.647 186.572 216.592 186.576 216.583 186.55C216.575 186.525 216.617 186.486 216.677 186.465C216.736 186.444 216.796 186.444 216.804 186.465Z" fill="#263238"/>
<path d="M227.154 185.919L226.872 185.291L233.583 181.92L234.766 184.483L234.339 184.701C232.506 185.654 224.967 189.421 223.54 189.609C221.964 189.836 227.154 185.919 227.154 185.919Z" fill="#455A64"/>
<path d="M234.791 184.3L234.68 184.368L234.351 184.539L233.138 185.154C232.113 185.662 230.686 186.35 229.093 187.076C227.5 187.802 226.039 188.422 224.98 188.862L223.719 189.37L223.378 189.502C223.338 189.521 223.297 189.534 223.254 189.541L223.369 189.485L223.707 189.336L224.954 188.802C226.009 188.349 227.461 187.717 229.055 186.991C230.648 186.265 232.079 185.59 233.113 185.094L234.334 184.509L234.672 184.351L234.791 184.3Z" fill="#263238"/>
<path d="M225.714 188.643C225.566 188.463 225.399 188.3 225.215 188.157C225.014 188.038 224.801 187.943 224.578 187.875C224.823 187.871 225.064 187.943 225.267 188.081C225.47 188.218 225.626 188.415 225.714 188.643Z" fill="#263238"/>
<path d="M227.257 186.713C227.257 186.713 227.094 186.662 226.923 186.551C226.753 186.44 226.629 186.333 226.642 186.312C226.654 186.29 226.804 186.363 226.975 186.474C227.146 186.585 227.269 186.692 227.257 186.713Z" fill="#263238"/>
<path d="M227.674 186.192C227.674 186.213 227.529 186.192 227.362 186.141C227.196 186.09 227.072 186.025 227.076 186C227.184 185.99 227.293 186.007 227.392 186.051C227.555 186.09 227.683 186.149 227.674 186.192Z" fill="#263238"/>
<path d="M227.734 185.372C227.734 185.397 227.593 185.487 227.397 185.581C227.284 185.649 227.157 185.691 227.025 185.705C227.025 185.679 227.166 185.589 227.359 185.495C227.474 185.428 227.602 185.385 227.734 185.372Z" fill="#263238"/>
<path d="M227.65 184.868C227.65 184.868 227.526 185.039 227.304 185.162C227.178 185.248 227.029 185.293 226.877 185.291C226.999 185.208 227.13 185.138 227.266 185.081C227.475 184.966 227.629 184.846 227.65 184.868Z" fill="#263238"/>
<path d="M226.774 186.226C226.643 186.316 226.499 186.382 226.346 186.423C226.179 186.472 226.007 186.508 225.834 186.53C225.729 186.543 225.623 186.543 225.518 186.53C225.452 186.525 225.39 186.494 225.347 186.444C225.327 186.414 225.316 186.378 225.316 186.342C225.316 186.305 225.327 186.27 225.347 186.239C225.477 186.082 225.657 185.975 225.857 185.936C226.058 185.897 226.265 185.928 226.445 186.026C226.551 186.081 226.644 186.158 226.718 186.252C226.769 186.32 226.791 186.363 226.786 186.367C226.681 186.25 226.555 186.153 226.415 186.081C226.264 186.011 226.097 185.985 225.932 186.009C225.834 186.019 225.739 186.048 225.653 186.095C225.566 186.142 225.49 186.205 225.428 186.282C225.381 186.363 225.428 186.431 225.543 186.444C225.641 186.453 225.74 186.453 225.838 186.444C226.008 186.427 226.177 186.397 226.342 186.355C226.586 186.286 226.774 186.214 226.774 186.226Z" fill="#263238"/>
<path d="M226.654 186.299C226.559 186.231 226.492 186.131 226.466 186.017C226.429 185.897 226.42 185.769 226.441 185.645C226.448 185.563 226.476 185.484 226.523 185.416C226.569 185.348 226.632 185.293 226.705 185.257C226.812 185.222 227.06 185.44 227.077 185.521C227.094 185.603 226.953 185.56 226.945 185.628C226.931 185.749 226.902 185.868 226.859 185.983C226.828 186.093 226.769 186.193 226.688 186.273C226.688 186.273 226.74 186.158 226.799 185.966C226.83 185.852 226.851 185.736 226.864 185.62C226.864 185.5 226.864 185.316 226.727 185.346C226.59 185.376 226.552 185.543 226.522 185.662C226.496 185.773 226.496 185.889 226.522 186C226.557 186.103 226.601 186.203 226.654 186.299Z" fill="#263238"/>
<path d="M233.808 182.501C233.808 182.501 233.603 182.574 233.312 182.749C232.932 182.976 232.623 183.305 232.419 183.697C232.222 184.094 232.138 184.538 232.176 184.979C232.202 185.321 232.283 185.517 232.266 185.526C232.238 185.483 232.217 185.437 232.202 185.389C232.159 185.258 232.129 185.124 232.112 184.987C232.051 184.533 232.13 184.07 232.338 183.661C232.546 183.252 232.874 182.916 233.278 182.698C233.399 182.631 233.526 182.577 233.658 182.536C233.706 182.517 233.756 182.505 233.808 182.501Z" fill="#263238"/>
<path d="M231.121 185.295C230.519 185.714 229.846 186.021 229.135 186.201C229.135 186.175 229.583 186.004 230.13 185.774C230.677 185.543 231.108 185.274 231.121 185.295Z" fill="#263238"/>
<path d="M232.451 184.684C232.472 184.684 232.451 184.791 232.451 184.915C232.451 185.039 232.451 185.141 232.451 185.15C232.451 185.158 232.365 185.056 232.365 184.915C232.365 184.774 232.429 184.671 232.451 184.684Z" fill="#263238"/>
<path d="M232.669 183.83C232.69 183.83 232.669 183.928 232.643 184.031C232.618 184.133 232.554 184.21 232.532 184.201C232.511 184.193 232.532 184.103 232.558 184.001C232.583 183.898 232.643 183.821 232.669 183.83Z" fill="#263238"/>
<path d="M233.258 183.202C233.258 183.227 233.173 183.266 233.087 183.347C233.002 183.428 232.955 183.513 232.933 183.505C232.912 183.496 232.933 183.377 233.027 183.279C233.121 183.18 233.254 183.202 233.258 183.202Z" fill="#263238"/>
<path d="M233.704 182.851C233.704 182.851 233.704 182.92 233.652 182.966C233.601 183.013 233.555 183.039 233.538 183.022C233.521 183.005 233.538 182.954 233.589 182.907C233.64 182.86 233.687 182.834 233.704 182.851Z" fill="#263238"/>
<path d="M225.303 95.9092L224.055 80.6599L230.463 80.7753C230.463 80.7753 230.757 78.5242 229.813 73.5949C229.232 70.5706 227.221 68.7168 224.961 67.6147V67.572L224.764 67.5208C222.904 66.6857 220.918 66.1674 218.887 65.9873L211.006 66.077C211.006 66.077 204.987 65.3081 201.668 69.6181C200.387 71.2712 196.41 82.5864 196.41 82.5864L205.872 87.1398L204.987 80.865C204.987 80.865 205.167 85.4141 205.748 86.8451C206.068 87.6481 207.029 90.1427 207.029 90.1427L206.905 97.6691L225.303 95.9092Z" fill="#B8DCFA"/>
<path d="M220.959 78.4477L219.789 83.4283H230.822L230.096 75.0732L220.959 78.4477Z" fill="#B8DCFA"/>
<path d="M230.823 83.4278C230.341 83.339 229.853 83.2904 229.363 83.2826C228.457 83.2314 227.227 83.1844 225.826 83.1929C224.425 83.2014 223.19 83.2613 222.285 83.3296C221.795 83.3466 221.307 83.4067 220.828 83.509C221.317 83.548 221.808 83.548 222.298 83.509C223.199 83.4791 224.433 83.4449 225.826 83.4407C227.218 83.4364 228.453 83.4407 229.358 83.462C229.847 83.4894 230.337 83.478 230.823 83.4278Z" fill="#263238"/>
<path d="M220.482 75.0347C220.429 75.4597 220.418 75.8889 220.448 76.3161C220.448 77.0978 220.482 78.1742 220.529 79.366C220.576 80.5577 220.632 81.6384 220.683 82.4158C220.685 82.8465 220.731 83.2759 220.819 83.6973C220.872 83.2722 220.883 82.8431 220.854 82.4158C220.854 81.6341 220.819 80.5535 220.773 79.3617C220.726 78.17 220.67 77.0935 220.619 76.3118C220.617 75.8826 220.571 75.4546 220.482 75.0347Z" fill="#263238"/>
<g opacity="0.3">
<path d="M210.443 79.3491C210.443 79.3491 212.895 97.5329 219.789 97.0503C219.789 97.0503 222.895 97.0161 223.89 94.9529V94.1414L210.443 79.3491Z" fill="black"/>
</g>
<g opacity="0.3">
<path d="M220.48 76.1069L219.16 85.0216L220.014 86.5849L221.424 83.5265L220.826 83.5095L220.48 76.1069Z" fill="black"/>
</g>
<path d="M206.993 90.1516C206.911 90.0185 206.848 89.8748 206.805 89.7245C206.698 89.4468 206.557 89.041 206.378 88.5327C205.95 87.2082 205.598 85.8605 205.323 84.4961C205.048 83.1309 204.874 81.7476 204.801 80.357C204.776 79.8231 204.767 79.3917 204.776 79.0756C204.765 78.9212 204.775 78.766 204.806 78.6143C204.84 78.6143 204.865 79.2721 204.955 80.3229C205.075 81.7008 205.271 83.0711 205.54 84.4278C205.856 86.0168 206.237 87.4392 206.527 88.4601C206.664 88.9342 206.779 89.34 206.873 89.6732C206.932 89.8274 206.972 89.988 206.993 90.1516Z" fill="#263238"/>
<path d="M209.779 95.3751C209.719 95.3751 209.548 95.0035 209.399 94.5208C209.27 94.225 209.213 93.903 209.232 93.5811C209.421 93.8421 209.55 94.1408 209.612 94.4567C209.735 94.7468 209.792 95.0604 209.779 95.3751Z" fill="#263238"/>
<path d="M210.731 95.307C210.408 94.4502 210.394 93.5074 210.693 92.6416C210.726 93.0852 210.726 93.5307 210.693 93.9743C210.739 94.4169 210.752 94.8624 210.731 95.307Z" fill="#263238"/>
<path d="M206.065 87.3488C206.035 87.4001 203.835 86.3578 201.149 85.0166C198.462 83.6753 196.305 82.5391 196.33 82.4836C196.356 82.428 198.56 83.4745 201.247 84.8158C203.934 86.1571 206.091 87.2933 206.065 87.3488Z" fill="#263238"/>
<path d="M209.943 67.5508C209.99 65.3894 210.003 63.117 210.003 63.117C210.003 63.117 207.231 62.5831 206.748 58.9352C206.287 55.4582 207.577 47.2953 207.577 47.2953C211.626 45.7661 215.834 47.1544 218.606 50.4349L217.918 67.978C217.837 70.0155 216.022 71.5703 213.843 71.4678C211.639 71.361 209.896 69.6097 209.943 67.5508Z" fill="#B78876"/>
<path d="M207.365 53.8178C207.362 53.9376 207.404 54.0543 207.483 54.144C207.563 54.2337 207.673 54.2897 207.793 54.3005C207.853 54.3064 207.914 54.2998 207.972 54.2813C208.03 54.2627 208.084 54.2325 208.13 54.1925C208.176 54.1526 208.213 54.1037 208.24 54.0488C208.266 53.9939 208.281 53.9342 208.284 53.8734C208.288 53.7541 208.245 53.6379 208.166 53.5489C208.086 53.4599 207.976 53.4048 207.857 53.395C207.796 53.3857 207.734 53.3898 207.675 53.4068C207.615 53.4238 207.561 53.4534 207.514 53.4936C207.467 53.5337 207.43 53.5835 207.404 53.6395C207.379 53.6954 207.365 53.7563 207.365 53.8178Z" fill="#263238"/>
<path d="M207.193 53.2072C207.249 53.267 207.62 53.015 208.112 53.0321C208.603 53.0491 208.966 53.3054 209.026 53.2456C209.086 53.1858 209 53.1089 208.842 52.9851C208.628 52.8301 208.372 52.7451 208.107 52.7416C207.847 52.7317 207.591 52.8066 207.377 52.9552C207.219 53.0705 207.163 53.1773 207.193 53.2072Z" fill="#263238"/>
<path d="M212.45 54.1338C212.445 54.2538 212.487 54.371 212.566 54.461C212.646 54.5509 212.757 54.6066 212.877 54.6164C212.938 54.6257 213 54.6216 213.06 54.6043C213.119 54.5871 213.174 54.5571 213.221 54.5165C213.268 54.4758 213.305 54.4255 213.331 54.369C213.356 54.3125 213.369 54.2512 213.368 54.1893C213.373 54.0697 213.331 53.953 213.251 53.8637C213.171 53.7745 213.06 53.7197 212.941 53.7109C212.88 53.7017 212.818 53.7057 212.759 53.7227C212.7 53.7397 212.645 53.7693 212.598 53.8095C212.551 53.8496 212.514 53.8994 212.488 53.9554C212.463 54.0114 212.45 54.0722 212.45 54.1338Z" fill="#263238"/>
<path d="M212.416 53.5228C212.472 53.5869 212.843 53.3348 213.335 53.3477C213.826 53.3605 214.189 53.621 214.253 53.5612C214.317 53.5014 214.223 53.4245 214.065 53.3049C213.854 53.1459 213.598 53.059 213.335 53.0572C213.073 53.0494 212.816 53.1241 212.6 53.2708C212.446 53.3861 212.391 53.4929 212.416 53.5228Z" fill="#263238"/>
<path d="M210.503 57.1924C210.241 57.1023 209.968 57.0463 209.692 57.0258C209.564 57.0258 209.444 56.9789 209.427 56.8934C209.417 56.7599 209.449 56.6266 209.521 56.5133L209.922 55.5522C210.296 54.7353 210.603 53.8897 210.841 53.0234C210.403 53.8083 210.029 54.6267 209.722 55.471C209.589 55.8085 209.457 56.1331 209.333 56.4406C209.25 56.5932 209.223 56.77 209.256 56.9404C209.273 56.9867 209.3 57.0285 209.336 57.0626C209.371 57.0967 209.414 57.1221 209.461 57.1369C209.532 57.1574 209.605 57.1689 209.679 57.1711C209.952 57.2131 210.229 57.2202 210.503 57.1924Z" fill="#263238"/>
<path d="M210.004 63.1166C211.713 63.185 213.407 62.7784 214.899 61.9419C214.899 61.9419 213.656 64.4066 210.03 63.9751L210.004 63.1166Z" fill="#A36957"/>
<path d="M214.024 52.0666C213.922 52.2246 213.537 52.1563 213.11 52.0666C212.683 51.9769 212.307 51.9042 212.256 51.7206C212.205 51.5369 212.653 51.2934 213.226 51.4088C213.798 51.5241 214.127 51.9299 214.024 52.0666Z" fill="#263238"/>
<path d="M209.039 51.3402C209.001 51.5238 208.591 51.5922 208.121 51.6135C207.651 51.6349 207.236 51.6135 207.181 51.4256C207.125 51.2376 207.523 50.9728 208.091 50.9472C208.659 50.9216 209.077 51.165 209.039 51.3402Z" fill="#263238"/>
<path d="M210.511 58.3928C210.457 58.3801 210.401 58.3857 210.35 58.409C210.3 58.4322 210.259 58.4716 210.234 58.521C210.209 58.5646 210.197 58.6137 210.197 58.6636C210.198 58.7135 210.211 58.7624 210.237 58.8054C210.262 58.8484 210.298 58.8841 210.341 58.9089C210.385 58.9337 210.434 58.9467 210.483 58.9467C210.533 58.9467 210.582 58.9337 210.626 58.9089C210.669 58.8841 210.705 58.8484 210.73 58.8054C210.756 58.7624 210.769 58.7135 210.77 58.6636C210.77 58.6137 210.758 58.5646 210.733 58.521C210.703 58.4636 210.653 58.4184 210.594 58.3928C210.534 58.3671 210.467 58.3627 210.404 58.38" fill="#A36957"/>
<path d="M210.627 58.4442C210.627 58.4229 210.546 58.299 210.328 58.346C210.263 58.363 210.204 58.3968 210.156 58.444C210.108 58.4913 210.073 58.5502 210.055 58.6151C210.032 58.6969 210.034 58.7836 210.061 58.8643C210.087 58.9449 210.137 59.0158 210.204 59.0679C210.275 59.1166 210.36 59.1426 210.446 59.1426C210.532 59.1426 210.616 59.1166 210.687 59.0679C210.744 59.0296 210.789 58.9759 210.816 58.9131C210.843 58.8503 210.852 58.781 210.841 58.7134C210.798 58.487 210.632 58.4528 210.623 58.4827C210.614 58.5126 210.683 58.5895 210.67 58.7219C210.667 58.7546 210.656 58.7861 210.638 58.8137C210.621 58.8412 210.596 58.864 210.567 58.8799C210.534 58.8991 210.497 58.9091 210.459 58.9091C210.42 58.9091 210.383 58.8991 210.35 58.8799C210.32 58.8547 210.297 58.8221 210.284 58.7854C210.27 58.7487 210.266 58.7092 210.273 58.6706C210.278 58.6369 210.291 58.6049 210.311 58.5773C210.331 58.5498 210.357 58.5275 210.388 58.5126C210.508 58.44 210.614 58.4741 210.627 58.4442Z" fill="#263238"/>
<path d="M216.95 54.7193C216.523 55.7188 215.464 56.4919 215.609 57.5726C215.703 58.2689 216.152 58.9181 216.066 59.6187C215.955 60.473 215.045 61.1052 214.913 61.9808C214.755 63.053 215.801 63.8859 216.216 64.8854C216.827 66.3463 216.049 67.9866 216.028 69.5841C216.053 70.797 216.517 71.9596 217.334 72.8566C218.151 73.7535 219.265 74.324 220.47 74.4622C221.444 74.5433 222.542 74.2486 223.033 73.4114C223.46 72.7194 223.366 71.8395 223.614 71.0749C223.99 69.9301 225.079 69.0929 225.323 67.9139C225.75 65.7782 223.144 63.9842 223.315 61.7971C223.388 60.8617 223.964 60.0501 224.208 59.1445C224.363 58.5494 224.375 57.926 224.243 57.3254C224.11 56.7248 223.838 56.164 223.447 55.6889C222.802 54.9243 221.871 54.4074 221.312 53.5873C220.692 52.6433 220.671 51.4515 220.457 50.3367C220.171 48.9816 219.545 47.7213 218.639 46.6737C217.733 45.6261 216.576 44.8253 215.276 44.3461C213.977 43.867 212.577 43.7252 211.207 43.9339C209.838 44.1427 208.544 44.6952 207.446 45.5398C207.446 45.5398 206.827 48.3547 209.719 48.8288C212.611 49.303 213.948 48.7562 214.272 49.9138C214.196 50.3907 214.233 50.8789 214.382 51.3385C214.53 51.798 214.785 52.2159 215.126 52.5579C216.305 53.8308 217.429 53.5574 216.95 54.7193Z" fill="#263238"/>
<path d="M221.54 74.2442C221.451 74.2473 221.362 74.2387 221.275 74.2186C221.025 74.1742 220.779 74.107 220.541 74.0179C219.659 73.6797 218.885 73.1083 218.303 72.3648C217.894 71.8517 217.574 71.2743 217.354 70.6562C217.105 69.9522 216.973 69.2118 216.966 68.4649C216.957 67.6417 217.06 66.8211 217.273 66.0259C217.39 65.6059 217.532 65.1936 217.7 64.7914C217.877 64.3911 218.032 63.9819 218.166 63.5655C218.283 63.1551 218.283 62.72 218.166 62.3096C218.041 61.9057 217.879 61.5139 217.683 61.1393C217.485 60.7677 217.318 60.3806 217.183 59.9817C217.052 59.5869 217.021 59.1655 217.094 58.7558C217.265 57.9527 217.751 57.3547 218.042 56.7439C218.319 56.1784 218.451 55.5532 218.426 54.9242C218.388 54.0037 218.054 53.1201 217.474 52.404C217.249 52.1532 217.008 51.9177 216.752 51.6992C217.051 51.8675 217.319 52.0873 217.542 52.3485C218.164 53.0635 218.531 53.9651 218.584 54.9114C218.62 55.5678 218.491 56.2227 218.209 56.8165C217.914 57.4487 217.44 58.051 217.294 58.7857C217.149 59.5203 217.495 60.2935 217.875 61.0367C218.083 61.4221 218.252 61.827 218.379 62.2456C218.506 62.6925 218.506 63.1656 218.379 63.6125C218.237 64.0434 218.073 64.4668 217.888 64.8811C217.72 65.2745 217.578 65.6783 217.461 66.0899C217.249 66.8651 217.144 67.6656 217.149 68.4692C217.136 69.8377 217.578 71.172 218.405 72.2623C218.958 72.9965 219.695 73.5725 220.541 73.9324C221.177 74.1802 221.545 74.2186 221.54 74.2442Z" fill="#455A64"/>
<path d="M221.114 52.6903C220.906 52.7442 220.693 52.7757 220.478 52.7843C219.892 52.847 219.3 52.8312 218.718 52.7373C218.277 52.672 217.853 52.5194 217.472 52.2883C217.09 52.0573 216.759 51.7525 216.497 51.3918C216.252 50.9355 216.058 50.4543 215.916 49.9566C215.733 49.4594 215.391 49.0371 214.942 48.7563C214.006 48.1625 212.909 48.0899 211.952 47.9746C211.069 47.9306 210.212 47.6631 209.461 47.1972C208.959 46.864 208.595 46.3579 208.441 45.7748C208.403 45.6167 208.393 45.4535 208.411 45.2921C208.411 45.181 208.436 45.1255 208.445 45.1255C208.45 45.3371 208.477 45.5475 208.526 45.7534C208.703 46.2986 209.066 46.7643 209.551 47.069C210.288 47.499 211.12 47.7397 211.973 47.7696C212.93 47.8806 214.066 47.9361 215.066 48.5683C215.555 48.8755 215.928 49.3369 216.125 49.8797C216.259 50.3648 216.444 50.8344 216.676 51.2807C217.174 51.9632 217.919 52.4233 218.752 52.5622C219.315 52.6669 219.888 52.7056 220.461 52.6775C220.678 52.6653 220.897 52.6696 221.114 52.6903Z" fill="#455A64"/>
<path d="M220.053 49.2132C219.892 49.267 219.723 49.2916 219.553 49.2858C218.757 49.2912 217.991 48.9845 217.418 48.4315C217.156 48.1695 216.934 47.8718 216.756 47.5473C216.371 46.898 216 46.0993 215.201 45.7661C214.431 45.5079 213.611 45.4362 212.809 45.5568C212.131 45.6519 211.444 45.6519 210.767 45.5568C210.296 45.4914 209.852 45.2962 209.486 44.993C209.391 44.9104 209.308 44.8156 209.238 44.711C209.187 44.637 209.165 44.5986 209.174 44.5957C209.174 44.5957 209.293 44.7324 209.541 44.9246C209.906 45.1844 210.331 45.3488 210.776 45.403C211.441 45.478 212.113 45.4665 212.775 45.3688C213.612 45.232 214.471 45.3054 215.273 45.5824C215.686 45.7678 216.039 46.0634 216.294 46.4367C216.519 46.7697 216.726 47.1148 216.914 47.4704C217.082 47.7809 217.29 48.0681 217.533 48.3247C217.747 48.5418 217.994 48.7247 218.263 48.8672C218.661 49.0747 219.098 49.1955 219.545 49.2217C219.874 49.2175 220.049 49.1918 220.053 49.2132Z" fill="#455A64"/>
<path d="M222.815 73.3216C222.793 73.3216 222.93 73.0397 223.088 72.51C223.302 71.7665 223.397 70.9938 223.37 70.2205C223.339 69.0759 223.026 67.9565 222.46 66.9613C222.148 66.4018 221.674 65.902 221.285 65.2869C221.08 64.9736 220.935 64.6244 220.858 64.2575C220.791 63.8713 220.823 63.4743 220.952 63.1042C221.191 62.3652 221.619 61.7458 221.712 61.0667C221.806 60.3875 221.482 59.7852 221.157 59.2171C220.99 58.9407 220.837 58.6555 220.7 58.3628C220.575 58.0789 220.493 57.7781 220.457 57.47C220.416 56.9273 220.434 56.3818 220.508 55.8426C220.645 55.0804 220.574 54.2956 220.303 53.5702C220.182 53.3161 220.01 53.0893 219.799 52.9038C219.799 52.9038 219.82 52.9038 219.85 52.9294C219.901 52.9546 219.947 52.9877 219.987 53.0277C220.154 53.1669 220.289 53.3402 220.384 53.536C220.693 54.2676 220.789 55.0716 220.662 55.8554C220.603 56.3846 220.596 56.9182 220.64 57.4487C220.746 58.0455 220.982 58.6115 221.332 59.106C221.515 59.3947 221.67 59.6992 221.798 60.0159C221.932 60.3577 221.977 60.7284 221.926 61.0923C221.824 61.8398 221.384 62.472 221.161 63.1682C221.045 63.5042 221.014 63.8639 221.072 64.2148C221.146 64.5541 221.282 64.877 221.473 65.1673C221.836 65.761 222.328 66.2694 222.639 66.8546C223.212 67.8833 223.517 69.0391 223.528 70.2162C223.541 71.0042 223.42 71.7886 223.169 72.5357C223.101 72.7378 223.018 72.9348 222.921 73.1251C222.895 73.1954 222.859 73.2615 222.815 73.3216Z" fill="#455A64"/>
<path d="M205.417 152.913C205.417 152.913 202.538 125.643 202.372 115.567C202.205 105.49 206.904 95.5463 206.904 95.5463L225.305 94.7817C225.305 94.7817 228.945 105.003 229.009 109.305C229.137 117.651 226.792 125.891 227.061 132.512L227.676 152.93" fill="#263238"/>
<path d="M228.296 119.386C228.2 119.469 228.099 119.546 227.993 119.616L227.826 119.732L227.647 119.907C227.489 120.044 227.345 120.197 227.22 120.364C226.626 121.09 226.194 122.393 225.78 124.012C225.568 124.91 225.256 125.781 224.849 126.609C224.725 126.836 224.582 127.051 224.422 127.254C224.345 127.356 224.272 127.467 224.183 127.566L223.901 127.848C223.497 128.225 223.028 128.526 222.517 128.736C221.487 129.189 220.321 129.402 219.262 129.936C218.176 130.52 217.338 131.476 216.9 132.627C216.378 133.785 216.045 134.998 215.618 136.134C215.191 137.271 214.614 138.356 213.696 139.047C212.818 139.658 211.775 139.987 210.706 139.991C209.715 140.051 208.797 140.021 207.972 140.145C207.23 140.222 206.521 140.49 205.913 140.923C205.469 141.27 205.137 141.739 204.956 142.272C204.842 142.609 204.817 142.97 204.884 143.319C204.935 143.558 204.999 143.674 204.986 143.678C204.918 143.571 204.868 143.452 204.841 143.328C204.751 142.971 204.763 142.597 204.875 142.247C205.045 141.687 205.38 141.191 205.836 140.824C206.459 140.354 207.197 140.059 207.972 139.97C208.826 139.833 209.736 139.851 210.714 139.786C211.752 139.78 212.764 139.458 213.615 138.864C214.478 138.109 215.115 137.131 215.456 136.036C215.883 134.913 216.195 133.695 216.737 132.516C217.197 131.317 218.074 130.324 219.206 129.719C220.308 129.172 221.474 128.962 222.478 128.527C222.97 128.323 223.421 128.034 223.811 127.672L224.08 127.403C224.165 127.309 224.238 127.203 224.315 127.104C224.466 126.91 224.598 126.703 224.712 126.485C225.121 125.669 225.438 124.809 225.656 123.922C226.083 122.307 226.549 120.988 227.177 120.257C227.302 120.091 227.445 119.939 227.604 119.804C227.672 119.745 227.732 119.685 227.792 119.638L227.967 119.527C228.074 119.473 228.184 119.426 228.296 119.386Z" fill="#FAFAFA"/>
<path d="M228.407 106.768C228.426 106.888 228.435 107.009 228.432 107.131C228.431 107.483 228.388 107.835 228.304 108.177C227.936 109.427 227.214 110.543 226.224 111.389C225.571 111.99 224.855 112.518 224.088 112.966C223.264 113.452 222.354 113.918 221.419 114.448C220.436 114.975 219.521 115.619 218.693 116.366C217.845 117.208 217.145 118.189 216.626 119.266C216.102 120.358 215.504 121.413 214.836 122.423C214.497 122.893 214.104 123.323 213.666 123.704C213.234 124.072 212.759 124.386 212.252 124.64C211.334 125.09 210.378 125.458 209.394 125.737C208.48 126.019 207.626 126.271 206.883 126.592C206.208 126.86 205.566 127.204 204.969 127.617C204.52 127.928 204.116 128.301 203.769 128.723C203.478 129.089 203.236 129.491 203.047 129.919C203.077 129.801 203.117 129.685 203.166 129.573C203.306 129.25 203.486 128.946 203.7 128.668C204.041 128.227 204.444 127.839 204.896 127.514C205.496 127.087 206.142 126.728 206.823 126.446C207.646 126.111 208.486 125.819 209.339 125.571C210.308 125.285 211.252 124.916 212.158 124.469C212.639 124.218 213.09 123.914 213.504 123.563C213.925 123.188 214.303 122.767 214.631 122.307C215.29 121.302 215.882 120.255 216.404 119.172C216.94 118.071 217.662 117.071 218.54 116.216C219.382 115.458 220.314 114.807 221.316 114.277C222.256 113.752 223.166 113.294 223.99 112.812C224.754 112.38 225.47 111.867 226.126 111.283C227.107 110.461 227.836 109.379 228.227 108.16C228.337 107.704 228.397 107.237 228.407 106.768Z" fill="#FAFAFA"/>
<path d="M202.466 116.993C202.449 116.967 202.436 116.938 202.428 116.908C202.396 116.826 202.369 116.742 202.347 116.656C202.273 116.316 202.288 115.963 202.389 115.631C202.629 114.777 203.573 113.679 205.093 113.136C205.854 112.876 206.712 112.709 207.609 112.487C208.354 112.364 209.059 112.064 209.664 111.613C210.27 111.162 210.759 110.573 211.09 109.894C211.333 109.396 211.546 108.884 211.727 108.361C212.061 107.224 212.515 106.125 213.081 105.084C213.73 104.061 214.714 103.296 215.866 102.919C216.914 102.579 217.982 102.308 219.065 102.107C220.032 101.922 220.968 101.603 221.846 101.159C222.59 100.734 223.232 100.151 223.726 99.4503C224.455 98.4393 224.871 97.2361 224.922 95.9904C224.923 95.5333 224.894 95.0765 224.832 94.6235C224.961 95.0673 225.02 95.5285 225.007 95.9904C224.99 97.263 224.588 98.5007 223.854 99.54C223.354 100.263 222.698 100.866 221.936 101.304C221.046 101.764 220.095 102.096 219.112 102.291C218.039 102.495 216.981 102.767 215.943 103.107C214.837 103.469 213.892 104.204 213.269 105.187C212.712 106.214 212.264 107.296 211.932 108.416C211.747 108.949 211.529 109.47 211.278 109.975C211.025 110.461 210.703 110.907 210.322 111.3C209.571 111.984 208.648 112.449 207.652 112.645C206.746 112.876 205.892 113.021 205.144 113.269C203.662 113.773 202.723 114.811 202.471 115.639C202.367 115.959 202.339 116.298 202.389 116.63C202.425 116.749 202.451 116.87 202.466 116.993Z" fill="#FAFAFA"/>
<path d="M226.824 140.06C226.842 140.148 226.852 140.238 226.854 140.329C226.863 140.587 226.835 140.846 226.773 141.098C226.505 142.024 225.937 142.835 225.159 143.404C224.639 143.818 224.064 144.158 223.45 144.412C222.796 144.69 222.075 144.912 221.314 145.147C220.525 145.378 219.753 145.663 219.003 146.001C218.225 146.373 217.527 146.894 216.949 147.535C216.325 148.184 215.787 148.897 215.189 149.53C214.617 150.142 213.952 150.661 213.22 151.067C211.973 151.748 210.578 152.111 209.157 152.127C208.206 152.137 207.26 151.979 206.364 151.661C206.121 151.577 205.884 151.476 205.655 151.358C205.572 151.323 205.493 151.279 205.42 151.225C205.506 151.249 205.59 151.279 205.672 151.315C205.907 151.415 206.146 151.504 206.39 151.58C207.285 151.86 208.22 151.992 209.157 151.969C210.547 151.933 211.906 151.562 213.121 150.888C213.831 150.486 214.475 149.977 215.031 149.38C215.616 148.756 216.15 148.047 216.786 147.381C217.399 146.716 218.136 146.179 218.956 145.8C219.717 145.461 220.501 145.175 221.301 144.946C222.053 144.716 222.771 144.519 223.437 144.237C224.033 143.993 224.593 143.67 225.103 143.276C225.868 142.735 226.439 141.963 226.73 141.072C226.793 140.738 226.825 140.399 226.824 140.06Z" fill="#FAFAFA"/>
<path d="M224.726 83.4454L221.164 83.5308C221.027 84.2492 220.754 84.9348 220.361 85.5513C217.371 80.3827 215.077 73.4629 214.504 70.6821C214.59 70.4045 214.688 70.0969 214.812 69.7552C214.901 69.2362 214.885 68.7046 214.765 68.1918C214.662 67.5725 214.492 66.7395 214.44 66.3551C214.282 65.1762 214.09 64.9925 213.68 65.1249C213.125 65.3086 213.911 68.4268 213.454 68.4951C213.206 68.5293 212.907 67.4614 212.821 66.5858C212.736 65.7101 212.334 63.0105 212.048 62.8311C211.621 62.5663 211.249 62.9849 211.36 63.8563C211.472 64.7277 211.604 67.376 211.143 67.4144C210.681 67.4529 210.288 62.9763 210.288 62.9763C210.288 62.9763 210.361 62.0024 209.823 62.0238C208.857 62.0665 209.613 66.7822 209.695 67.2308C209.754 67.5383 209.267 67.5981 209.208 67.2607C209.148 66.9232 208.926 62.7884 207.926 62.8226C207.166 62.8226 208.511 66.7054 208.084 67.6024C207.657 68.4994 207.367 64.5611 206.645 64.6123C206.376 64.6337 206.175 64.6849 206.67 66.9104C207.145 68.6786 207.715 70.4197 208.379 72.1259C209.524 78.2982 214.547 98.0454 222.419 94.4317C226.828 92.407 228.613 83.4454 228.613 83.4454H224.726Z" fill="#B78876"/>
<path d="M209.542 67.5294C209.576 67.5379 209.611 67.5379 209.645 67.5294C209.696 67.5137 209.74 67.4801 209.769 67.4347C209.798 67.3893 209.81 67.335 209.803 67.2817C209.803 67.0168 209.751 66.6324 209.691 66.1326C209.591 65.5303 209.526 64.9228 209.495 64.313C209.495 63.9542 209.495 63.5697 209.516 63.1639C209.523 62.9576 209.544 62.752 209.58 62.5488C209.615 62.3566 209.743 62.1217 209.892 62.1601H209.918C210.067 62.1601 210.187 62.2712 210.234 62.4506C210.287 62.6365 210.307 62.8302 210.294 63.023C210.382 64.2192 210.534 65.4099 210.751 66.5897C210.785 66.7477 210.819 66.91 210.87 67.0724C210.893 67.1554 210.922 67.2368 210.956 67.3158C210.978 67.3598 211.002 67.4026 211.028 67.444C211.048 67.4752 211.074 67.5015 211.105 67.5208C211.136 67.5401 211.171 67.5518 211.208 67.555C211.27 67.5482 211.329 67.523 211.377 67.4827C211.425 67.4424 211.46 67.3888 211.477 67.3287C211.514 67.2451 211.541 67.1577 211.558 67.0681C211.591 66.8959 211.614 66.7219 211.626 66.547C211.665 65.8352 211.655 65.1216 211.597 64.4112C211.543 64.0565 211.528 63.6969 211.554 63.3391C211.569 63.1845 211.644 63.042 211.763 62.9418C211.791 62.9255 211.821 62.9152 211.853 62.9115C211.884 62.9078 211.916 62.9109 211.947 62.9205C211.983 62.9292 212.018 62.9436 212.049 62.9632C212.071 62.9794 212.087 63.0017 212.096 63.0272C212.231 63.3736 212.33 63.7329 212.391 64.0994C212.468 64.4753 212.532 64.864 212.592 65.2527C212.652 65.6414 212.707 66.0344 212.754 66.4316C212.791 66.8416 212.856 67.2484 212.951 67.649C213.001 67.8539 213.065 68.0551 213.143 68.2513C213.186 68.3611 213.247 68.4635 213.322 68.5546C213.351 68.5924 213.39 68.6214 213.435 68.638C213.479 68.6546 213.528 68.6583 213.574 68.6486C213.618 68.6343 213.656 68.6091 213.687 68.5754C213.718 68.5417 213.739 68.5007 213.749 68.4563C213.8 68.2381 213.816 68.0132 213.796 67.79C213.796 67.5764 213.771 67.3628 213.749 67.1578C213.72 66.799 213.685 66.4444 213.673 66.0942C213.662 65.9221 213.662 65.7495 213.673 65.5773C213.681 65.5011 213.7 65.4264 213.728 65.3552C213.737 65.3317 213.75 65.31 213.766 65.2911H213.822C214.104 65.1758 214.198 65.5688 214.275 65.8849C214.352 66.201 214.382 66.5598 214.45 66.8972C214.561 67.5679 214.706 68.2385 214.779 68.8792C214.828 69.186 214.817 69.4996 214.745 69.8019C214.642 70.1094 214.54 70.4127 214.441 70.716V70.7459V70.7715C214.942 72.87 215.58 74.9333 216.351 76.9481C217.026 78.772 217.705 80.3653 218.299 81.6468C218.892 82.9282 219.431 83.932 219.798 84.6069L220.225 85.3715C220.271 85.4626 220.327 85.5485 220.392 85.6278C220.356 85.5329 220.311 85.4414 220.259 85.3544L219.832 84.5727C219.482 83.885 218.978 82.8641 218.397 81.5827C217.816 80.3012 217.158 78.708 216.5 76.884C215.748 74.8723 215.123 72.815 214.629 70.7245V70.7843C214.728 70.4853 214.826 70.182 214.928 69.8787C215.017 69.5459 215.035 69.198 214.98 68.8579C214.903 68.1872 214.762 67.538 214.651 66.8631C214.587 66.5299 214.544 66.1882 214.476 65.8379C214.471 65.658 214.441 65.4796 214.386 65.3082C214.337 65.204 214.254 65.1196 214.151 65.069C214.041 65.0332 213.923 65.0332 213.813 65.069H213.745C213.709 65.0806 213.676 65.0995 213.647 65.1246C213.599 65.1648 213.563 65.2162 213.54 65.2741C213.501 65.3665 213.476 65.4645 213.467 65.5645C213.455 65.7494 213.455 65.9349 213.467 66.1198C213.467 66.4786 213.519 66.8374 213.549 67.1962C213.549 67.4055 213.583 67.6234 213.591 67.8156C213.608 68.0083 213.598 68.2024 213.561 68.3923C213.561 68.435 213.527 68.4264 213.561 68.4478L213.536 68.4222C213.481 68.3524 213.438 68.2746 213.408 68.1915C213.333 68.0067 213.272 67.8169 213.224 67.6234C213.13 67.2344 213.066 66.8389 213.032 66.4402C212.986 66.0387 212.931 65.6414 212.865 65.2484C212.805 64.8554 212.737 64.471 212.66 64.0866C212.596 63.6953 212.487 63.3126 212.336 62.9461C212.306 62.8849 212.26 62.8331 212.203 62.7966C212.153 62.7677 212.1 62.7448 212.045 62.7282C211.984 62.7123 211.921 62.7085 211.858 62.7173C211.796 62.7262 211.736 62.7473 211.682 62.7795C211.594 62.8453 211.52 62.9286 211.466 63.0242C211.412 63.1197 211.378 63.2255 211.366 63.3348C211.338 63.5289 211.338 63.7259 211.366 63.92C211.366 64.1037 211.409 64.2831 211.421 64.4625C211.481 65.1614 211.494 65.8634 211.46 66.5641C211.45 66.7305 211.428 66.896 211.396 67.0596C211.384 67.1359 211.362 67.2105 211.332 67.2817C211.321 67.3098 211.305 67.3358 211.285 67.3586C211.285 67.397 211.255 67.3586 211.259 67.4098C211.259 67.3671 211.259 67.4098 211.259 67.3543C211.24 67.3254 211.223 67.2955 211.208 67.2646C211.178 67.1962 211.152 67.1194 211.127 67.0467C211.08 66.893 211.046 66.7349 211.011 66.5811C210.789 65.4115 210.627 64.2309 210.529 63.0443C210.542 62.8296 210.517 62.6142 210.456 62.4079C210.428 62.3002 210.37 62.2026 210.289 62.126C210.248 62.0856 210.198 62.0541 210.144 62.0336C210.089 62.013 210.031 62.0037 209.973 62.0064H209.999C209.927 61.9958 209.853 62.0068 209.787 62.0379C209.721 62.0691 209.665 62.119 209.627 62.1815C209.564 62.2834 209.52 62.3965 209.499 62.5147C209.463 62.7265 209.443 62.9406 209.439 63.1554C209.439 63.5825 209.439 63.9542 209.439 64.3172C209.48 64.9309 209.558 65.5415 209.674 66.1454C209.747 66.6409 209.803 67.0254 209.828 67.2859C209.836 67.3316 209.828 67.3786 209.806 67.4191C209.783 67.4596 209.747 67.491 209.704 67.5081C209.576 67.5209 209.538 67.5251 209.542 67.5294Z" fill="#A36957"/>
<path d="M181.722 89.3268C180.888 89.309 180.056 89.4053 179.248 89.613C177.04 90.1939 173.234 92.5005 173.076 95.3496H175.844C175.844 95.3496 174.294 98.6472 174.746 98.3397C175.93 97.5452 178.279 95.1574 178.279 95.1574L181.722 89.3268Z" fill="#B78876"/>
<path d="M219.453 39.6794C219.389 39.6794 219.141 37.3984 218.894 34.5535C218.646 31.7087 218.492 29.4277 218.552 29.4277C218.612 29.4277 218.864 31.7087 219.112 34.5535C219.359 37.3984 219.513 39.6794 219.453 39.6794Z" fill="#263238"/>
<path d="M231.59 29.6024C231.637 29.6365 229.77 32.349 227.417 35.6594C225.063 38.9698 223.111 41.6395 223.06 41.5882C223.008 41.537 224.879 38.8416 227.233 35.5312C229.586 32.2208 231.539 29.5682 231.59 29.6024Z" fill="#263238"/>
<path d="M236.628 41.896C236.628 41.9558 234.458 42.4556 231.758 43.0109C229.059 43.5662 226.855 43.9677 226.842 43.9079C226.829 43.8481 229.008 43.3483 231.711 42.7931C234.415 42.2378 236.598 41.8362 236.628 41.896Z" fill="#263238"/>
<path d="M91.3653 100.565L76.2442 178.221L74.2793 188.387L175.087 187.9C179.615 187.879 183.63 183.86 185.078 177.888L202.958 104.576C204.065 100.044 201.639 95.3283 198.204 95.3325L96.1494 95.4393C93.9282 95.435 91.9377 97.5366 91.3653 100.565Z" fill="#B8DCFA"/>
<g opacity="0.5">
<path d="M91.3653 100.565L76.2442 178.221L74.2793 188.387L175.087 187.9C179.615 187.879 183.63 183.86 185.078 177.888L202.958 104.576C204.065 100.044 201.639 95.3283 198.204 95.3325L96.1494 95.4393C93.9282 95.435 91.9377 97.5366 91.3653 100.565Z" fill="black"/>
</g>
<path d="M165.427 172.95L154.748 86.9179C154.321 83.3939 151.506 80.7626 148.187 80.7754L124.779 80.8481C123.909 80.8579 123.051 81.0447 122.255 81.3972C121.46 81.7497 120.745 82.2605 120.153 82.8984L109.047 94.7176L43.9495 95.0679C39.9727 95.0893 36.9143 98.8567 37.4397 103.086L47.3539 182.6C47.781 186.119 50.596 188.746 53.9064 188.742L167.379 188.516C180.014 188.776 181.223 185.047 181.223 185.047C166.717 188.255 165.427 172.972 165.427 172.95Z" fill="#B8DCFA"/>
<path d="M87.5 147C89.433 147 91 145.433 91 143.5C91 141.567 89.433 140 87.5 140C85.567 140 84 141.567 84 143.5C84 145.433 85.567 147 87.5 147Z" fill="#263238"/>
<path d="M116.5 147C118.433 147 120 145.433 120 143.5C120 141.567 118.433 140 116.5 140C114.567 140 113 141.567 113 143.5C113 145.433 114.567 147 116.5 147Z" fill="#263238"/>
<path d="M107.231 148L107.029 147.599C107.012 147.562 105.116 143.905 101.303 143.905C97.8353 143.905 96.9682 147.348 96.9451 147.496L96.841 147.934L96 147.722L96.1012 147.282C96.1012 147.24 97.1358 143 101.303 143C105.639 143 107.711 147.007 107.798 147.179L108 147.578L107.231 148Z" fill="#263238"/>
<path d="M181.629 44.7111C181.49 44.6528 181.372 44.5564 181.286 44.4331C181.201 44.3098 181.152 44.1647 181.146 44.0148L180.975 40.0509C180.969 39.9277 180.992 39.8048 181.041 39.692C181.091 39.5791 181.166 39.4793 181.261 39.4006C181.356 39.3219 181.468 39.2663 181.588 39.2383C181.708 39.2103 181.833 39.2106 181.953 39.2393C182.284 39.3106 182.626 39.3137 182.958 39.2484C183.29 39.183 183.605 39.0505 183.884 38.8591C184.141 38.6965 184.362 38.483 184.533 38.2317C184.704 37.9805 184.822 37.6968 184.879 37.3983C184.918 37.0959 184.896 36.7889 184.813 36.4954C184.731 36.2019 184.591 35.9279 184.401 35.6897C184.201 35.4186 183.949 35.1896 183.66 35.0159C183.371 34.8422 183.051 34.7271 182.718 34.6773C182.046 34.6399 181.381 34.8305 180.83 35.2181C180.28 35.6057 179.876 36.1677 179.685 36.8131C179.621 37.0086 179.484 37.172 179.303 37.2692C179.122 37.3665 178.91 37.39 178.712 37.3349C178.514 37.2799 178.344 37.1505 178.239 36.9737C178.134 36.7969 178.101 36.5864 178.147 36.3859C178.438 35.3708 179.069 34.4866 179.935 33.8822C180.801 33.2778 181.848 32.9899 182.902 33.067C183.45 33.14 183.978 33.3224 184.454 33.6035C184.93 33.8845 185.345 34.2584 185.674 34.7029C185.994 35.1149 186.228 35.5869 186.362 36.091C186.496 36.595 186.528 37.1209 186.455 37.6375C186.358 38.1533 186.157 38.6437 185.863 39.0786C185.569 39.5135 185.189 39.8837 184.747 40.1662C184.106 40.5976 183.357 40.8417 182.585 40.871L182.718 43.9294C182.723 44.0638 182.694 44.1972 182.633 44.3174C182.573 44.4375 182.483 44.5405 182.373 44.6168C182.262 44.693 182.134 44.7401 182 44.7536C181.866 44.7671 181.731 44.7466 181.607 44.694L181.629 44.7111Z" fill="#B8DCFA"/>
<path d="M182.8 46.3349C182.809 46.4639 182.779 46.5927 182.715 46.7049C182.651 46.8172 182.555 46.9078 182.439 46.9655C182.323 47.0231 182.193 47.0451 182.065 47.0286C181.936 47.0122 181.816 46.9581 181.718 46.8732C181.621 46.7882 181.551 46.6763 181.517 46.5515C181.483 46.4267 181.487 46.2946 181.528 46.1721C181.569 46.0495 181.646 45.9419 181.748 45.8629C181.851 45.784 181.974 45.7371 182.103 45.7284C182.189 45.722 182.275 45.7326 182.357 45.7597C182.438 45.7869 182.513 45.8299 182.578 45.8863C182.643 45.9427 182.696 46.0114 182.734 46.0884C182.772 46.1654 182.794 46.2492 182.8 46.3349Z" fill="#B8DCFA"/>
<path d="M167.906 39.1201C167.924 39.0356 167.937 38.95 167.944 38.8638C167.944 38.6758 167.991 38.4366 168.025 38.0992C168.067 37.6849 168.137 37.2739 168.234 36.869C168.29 36.6298 168.32 36.365 168.405 36.0959C168.491 35.8267 168.576 35.5363 168.67 35.2415C169.165 33.7812 169.885 32.4076 170.806 31.1708C172.012 29.5693 173.542 28.2391 175.295 27.2666C176.293 26.7039 177.356 26.265 178.46 25.9596C179.652 25.6437 180.88 25.4829 182.113 25.4812C182.762 25.4707 183.411 25.505 184.056 25.5837C184.385 25.6178 184.71 25.7033 185.039 25.7588C185.371 25.8158 185.699 25.8957 186.021 25.998C187.367 26.3742 188.648 26.9548 189.818 27.7194C192.421 29.4072 194.403 31.8961 195.465 34.8101C196.037 36.371 196.327 38.0215 196.32 39.6839C196.337 41.3965 196.034 43.0974 195.427 44.6987L195.235 45.1856L195.209 45.2497L195.235 45.3138C196.307 47.7784 197.37 50.2004 198.374 52.5454L198.554 52.3404L192.146 49.8843L192.069 49.8544L192.005 49.9142C190.31 51.5565 188.235 52.7539 185.965 53.3997C184.026 53.9337 181.995 54.0503 180.007 53.7418C178.019 53.4333 176.119 52.7067 174.432 51.61C173.051 50.7041 171.833 49.5703 170.831 48.2568C169.38 46.3397 168.439 44.0849 168.098 41.7043C168.046 41.2772 168.004 40.9184 167.965 40.5937C167.927 40.2691 167.965 40.0043 167.944 39.7779C167.923 39.5515 167.944 39.402 167.944 39.2781C167.965 39.2749 167.985 39.2637 167.998 39.2469C168.011 39.23 168.018 39.2087 168.016 39.1872C168.015 39.1658 168.005 39.1457 167.989 39.131C167.973 39.1164 167.953 39.1082 167.931 39.1082C167.91 39.1082 167.889 39.1164 167.873 39.131C167.857 39.1457 167.848 39.1658 167.846 39.1872C167.844 39.2087 167.851 39.23 167.864 39.2469C167.878 39.2637 167.897 39.2749 167.918 39.2781C167.918 39.402 167.918 39.5686 167.918 39.7779C167.918 39.9872 167.918 40.2777 167.918 40.6023C167.918 40.9269 167.991 41.2985 168.034 41.7214C168.174 42.7488 168.419 43.7593 168.764 44.7371C169.253 46.0284 169.911 47.2493 170.72 48.3679C171.726 49.7047 172.953 50.8603 174.347 51.7851C176.054 52.9092 177.981 53.6574 180 53.9799C182.018 54.3025 184.082 54.1921 186.055 53.656C188.352 53.0035 190.453 51.7946 192.172 50.1363L192.031 50.1662L198.438 52.6351L198.759 52.759L198.618 52.4301C197.601 50.085 196.55 47.6674 195.482 45.1984V45.3223L195.679 44.8225C196.302 43.1863 196.612 41.4475 196.593 39.6967C196.606 37.999 196.317 36.3124 195.739 34.7162C194.653 31.7441 192.627 29.2078 189.968 27.493C188.768 26.7106 187.454 26.1197 186.072 25.7417C185.745 25.6383 185.411 25.5597 185.073 25.5068C184.74 25.447 184.411 25.3615 184.077 25.3316C183.424 25.2506 182.766 25.2135 182.108 25.2206C180.856 25.2259 179.609 25.3953 178.401 25.7246C177.282 26.0424 176.205 26.4926 175.193 27.0659C173.422 28.0622 171.883 29.4236 170.678 31.0597C169.76 32.317 169.049 33.7129 168.572 35.1946C168.482 35.5021 168.397 35.7968 168.32 36.0489C168.252 36.3064 168.198 36.5673 168.158 36.8306C168.066 37.2382 168.006 37.6524 167.978 38.0693C167.952 38.3982 167.935 38.6502 167.923 38.8382C167.905 38.931 167.899 39.0258 167.906 39.1201Z" fill="#263238"/>
</svg>
