<svg width="817" height="165" viewBox="0 0 817 165" fill="none" xmlns="http://www.w3.org/2000/svg">
<path d="M84.496 0.997986L84.496 125.081L79.1734 125.081L79.1734 0.997986L84.496 0.997986Z" fill="#9ECBFF"/>
<path d="M12.9738 11.3105H73.1855V16.3004H12.9738V11.3105Z" fill="#84A5FB"/>
<path d="M90.8165 11.3105H151.028V16.3004H90.8165V11.3105Z" fill="#84A5FB"/>
<path d="M79.1734 0H150.696V5.32258H79.1734V0Z" fill="#9ECBFF"/>
<path d="M79.1734 65.2016H140.05V70.1915H79.1734V65.2016Z" fill="#9ECBFF"/>
<path d="M79.1734 119.758H151.028V125.081H79.1734V119.758Z" fill="#9ECBFF"/>
<path d="M73.1855 11.3105L73.1855 150.363L68.1956 150.363L68.1956 11.3105L73.1855 11.3105Z" fill="#84A5FB"/>
<path d="M90.8165 11.3105L90.8165 150.363L96.1391 150.363L96.1391 11.3105L90.8165 11.3105Z" fill="#84A5FB"/>
<path d="M27.9435 13.9718C27.9435 21.6882 21.6882 27.9435 13.9718 27.9435C6.25538 27.9435 0 21.6882 0 13.9718C0 6.25538 6.25538 0 13.9718 0C21.6882 0 27.9435 6.25538 27.9435 13.9718Z" fill="#FEFEFE"/>
<path fill-rule="evenodd" clip-rule="evenodd" d="M13.9718 22.8629C18.8822 22.8629 22.8629 18.8822 22.8629 13.9718C22.8629 9.06134 18.8822 5.08064 13.9718 5.08064C9.06134 5.08064 5.08064 9.06134 5.08064 13.9718C5.08064 18.8822 9.06134 22.8629 13.9718 22.8629ZM13.9718 27.9435C21.6882 27.9435 27.9435 21.6882 27.9435 13.9718C27.9435 6.25538 21.6882 0 13.9718 0C6.25538 0 0 6.25538 0 13.9718C0 21.6882 6.25538 27.9435 13.9718 27.9435Z" fill="#84A5FB"/>
<path d="M136.724 13.9718C136.724 21.6882 142.979 27.9435 150.696 27.9435C158.412 27.9435 164.667 21.6882 164.667 13.9718C164.667 6.25538 158.412 0 150.696 0C142.979 0 136.724 6.25538 136.724 13.9718Z" fill="#FEFEFE"/>
<path fill-rule="evenodd" clip-rule="evenodd" d="M150.696 22.8629C145.785 22.8629 141.804 18.8822 141.804 13.9718C141.804 9.06134 145.785 5.08064 150.696 5.08064C155.606 5.08064 159.587 9.06134 159.587 13.9718C159.587 18.8822 155.606 22.8629 150.696 22.8629ZM150.696 27.9435C142.979 27.9435 136.724 21.6882 136.724 13.9718C136.724 6.25538 142.979 0 150.696 0C158.412 0 164.667 6.25538 164.667 13.9718C164.667 21.6882 158.412 27.9435 150.696 27.9435Z" fill="#84A5FB"/>
<path d="M68.1956 150.529C68.1956 158.337 74.4509 164.667 82.1673 164.667C89.8837 164.667 96.1391 158.337 96.1391 150.529C96.1391 142.721 89.8837 136.391 82.1673 136.391C74.4509 136.391 68.1956 142.721 68.1956 150.529Z" fill="#FEFEFE"/>
<path fill-rule="evenodd" clip-rule="evenodd" d="M82.1673 159.526C77.2569 159.526 73.2762 155.498 73.2762 150.529C73.2762 145.56 77.2569 141.532 82.1673 141.532C87.0778 141.532 91.0585 145.56 91.0585 150.529C91.0585 155.498 87.0778 159.526 82.1673 159.526ZM82.1673 164.667C74.4509 164.667 68.1956 158.337 68.1956 150.529C68.1956 142.721 74.4509 136.391 82.1673 136.391C89.8837 136.391 96.1391 142.721 96.1391 150.529C96.1391 158.337 89.8837 164.667 82.1673 164.667Z" fill="#84A5FB"/>
<path d="M125.746 67.8629C125.746 75.5793 132.001 81.8347 139.718 81.8347C147.434 81.8347 153.69 75.5793 153.69 67.8629C153.69 60.1465 147.434 53.8911 139.718 53.8911C132.001 53.8911 125.746 60.1465 125.746 67.8629Z" fill="#FEFEFE"/>
<path fill-rule="evenodd" clip-rule="evenodd" d="M139.718 76.754C134.807 76.754 130.827 72.7733 130.827 67.8629C130.827 62.9525 134.807 58.9718 139.718 58.9718C144.628 58.9718 148.609 62.9525 148.609 67.8629C148.609 72.7733 144.628 76.754 139.718 76.754ZM139.718 81.8347C132.001 81.8347 125.746 75.5793 125.746 67.8629C125.746 60.1465 132.001 53.8911 139.718 53.8911C147.434 53.8911 153.69 60.1465 153.69 67.8629C153.69 75.5793 147.434 81.8347 139.718 81.8347Z" fill="#9ECBFF"/>
<path d="M137.056 122.419C137.056 130.136 143.312 136.391 151.028 136.391C158.745 136.391 165 130.136 165 122.419C165 114.703 158.745 108.448 151.028 108.448C143.312 108.448 137.056 114.703 137.056 122.419Z" fill="#FEFEFE"/>
<path fill-rule="evenodd" clip-rule="evenodd" d="M151.028 131.31C146.118 131.31 142.137 127.33 142.137 122.419C142.137 117.509 146.118 113.528 151.028 113.528C155.939 113.528 159.919 117.509 159.919 122.419C159.919 127.33 155.939 131.31 151.028 131.31ZM151.028 136.391C143.312 136.391 137.056 130.136 137.056 122.419C137.056 114.703 143.312 108.448 151.028 108.448C158.745 108.448 165 114.703 165 122.419C165 130.136 158.745 136.391 151.028 136.391Z" fill="#9ECBFF"/>
<path d="M202.266 50.8438C200.547 50.8438 199.688 50.1406 199.688 48.7344V44.8906C199.688 43.4844 200.547 42.7812 202.266 42.7812H251.859C253.578 42.7812 254.438 43.4844 254.438 44.8906V48.7344C254.438 50.1406 253.578 50.8438 251.859 50.8438H231.562V107.422C231.562 109.141 230.781 110 229.219 110H224.906C223.344 110 222.562 109.141 222.562 107.422V50.8438H202.266ZM262.971 110C261.564 110 260.861 109.297 260.861 107.891V42.9219C260.861 41.5156 261.564 40.8125 262.971 40.8125H267.002C268.408 40.8125 269.111 41.5156 269.111 42.9219V63.8281C269.111 64.7656 269.08 65.7031 269.018 66.6406H269.205C271.236 64.3906 273.424 62.7188 275.768 61.625C278.111 60.5312 281.033 59.9844 284.533 59.9844C290.221 59.9844 294.299 61.5938 296.768 64.8125C299.268 68 300.518 72.375 300.518 77.9375V107.891C300.518 109.297 299.814 110 298.408 110H294.377C292.971 110 292.268 109.297 292.268 107.891V80.1875C292.268 74.0625 291.252 70.1875 289.221 68.5625C287.189 66.9062 284.611 66.0781 281.486 66.0781C277.424 66.0781 274.346 67.2969 272.252 69.7344C270.158 72.1406 269.111 76.2812 269.111 82.1562V107.891C269.111 109.297 268.408 110 267.002 110H262.971ZM309.144 85.3906C309.144 78.0469 311.082 71.9844 314.957 67.2031C318.863 62.3906 324.566 59.9844 332.066 59.9844C339.566 59.9844 345.254 62.3906 349.129 67.2031C353.035 71.9844 354.988 78.0469 354.988 85.3906C354.988 92.7344 353.035 98.8125 349.129 103.625C345.254 108.406 339.566 110.797 332.066 110.797C324.566 110.797 318.863 108.406 314.957 103.625C311.082 98.8125 309.144 92.7344 309.144 85.3906ZM317.863 85.3906C317.863 91.9531 319.16 96.8125 321.754 99.9688C324.348 103.125 327.785 104.703 332.066 104.703C336.348 104.703 339.785 103.125 342.379 99.9688C344.973 96.8125 346.269 91.9531 346.269 85.3906C346.269 78.8281 344.973 73.9688 342.379 70.8125C339.785 67.6562 336.348 66.0781 332.066 66.0781C327.785 66.0781 324.348 67.6562 321.754 70.8125C319.16 73.9688 317.863 78.8281 317.863 85.3906ZM365.818 110C364.412 110 363.709 109.297 363.709 107.891V62.8906C363.709 61.4844 364.412 60.7812 365.818 60.7812H369.756C371.162 60.7812 371.865 61.4844 371.865 62.8906V66.6406H372.053C374.084 64.3906 376.287 62.7188 378.662 61.625C381.037 60.5312 383.318 59.9844 385.506 59.9844C389.537 59.9844 392.631 61 394.787 63.0312C396.974 65.0312 398.381 67.0469 399.006 69.0781H399.193C400.912 66.5156 403.084 64.3594 405.709 62.6094C408.334 60.8594 411.131 59.9844 414.099 59.9844C419.068 59.9844 422.818 61.5938 425.349 64.8125C427.881 68 429.146 72.375 429.146 77.9375V107.891C429.146 109.297 428.443 110 427.037 110H423.006C421.599 110 420.896 109.297 420.896 107.891V80.6562C420.896 74.5312 420.131 70.5781 418.599 68.7969C417.068 66.9844 414.709 66.0781 411.521 66.0781C408.396 66.0781 405.787 67.4219 403.693 70.1094C401.599 72.7656 400.553 76.7812 400.553 82.1562V107.891C400.553 109.297 399.849 110 398.443 110H394.412C393.006 110 392.303 109.297 392.303 107.891V80.6562C392.303 74.5312 391.537 70.5781 390.006 68.7969C388.474 66.9844 386.115 66.0781 382.928 66.0781C379.803 66.0781 377.193 67.2969 375.099 69.7344C373.006 72.1406 371.959 76.2812 371.959 82.1562V107.891C371.959 109.297 371.256 110 369.849 110H365.818ZM437.773 96.875C437.773 91.3125 440.367 87.2344 445.554 84.6406C450.773 82.0469 458.554 80.5312 468.898 80.0938V76.9062C468.898 73.9688 468.226 71.4375 466.883 69.3125C465.57 67.1562 462.945 66.0781 459.008 66.0781C456.508 66.0781 454.508 66.3281 453.008 66.8281C451.508 67.2969 450.133 67.9375 448.883 68.75C447.664 69.5312 446.492 70.5469 445.367 71.7969C444.523 72.7344 443.726 72.7812 442.976 71.9375L440.539 69.125C439.851 68.3438 440.086 67.4062 441.242 66.3125C442.898 64.75 444.508 63.5781 446.07 62.7969C447.633 62.0156 449.57 61.3594 451.883 60.8281C454.226 60.2656 456.601 59.9844 459.008 59.9844C465.539 59.9844 470.195 61.6719 472.976 65.0469C475.758 68.3906 477.148 72.9844 477.148 78.8281V107.891C477.148 109.297 476.445 110 475.039 110H470.82C469.601 110 468.992 109.297 468.992 107.891V105.594H468.898C466.429 107.531 464.008 108.891 461.633 109.672C459.289 110.422 456.664 110.797 453.758 110.797C448.633 110.797 444.679 109.578 441.898 107.141C439.148 104.672 437.773 101.25 437.773 96.875ZM446.304 97.0625C446.304 99 446.711 100.562 447.523 101.75C448.336 102.906 449.461 103.656 450.898 104C452.336 104.312 453.836 104.469 455.398 104.469C457.804 104.469 460.086 104.234 462.242 103.766C464.398 103.297 466.617 102.062 468.898 100.062V86.2344C462.586 86.7031 458.086 87.2812 455.398 87.9688C452.711 88.625 450.523 89.7812 448.836 91.4375C447.148 93.0625 446.304 94.9375 446.304 97.0625ZM486.666 105.406C485.697 104.5 485.494 103.656 486.056 102.875L488.166 99.9219C488.853 98.9844 489.869 99.0312 491.212 100.062C493.056 101.469 495.103 102.594 497.353 103.438C499.634 104.281 502.228 104.703 505.134 104.703C506.853 104.703 508.384 104.5 509.728 104.094C511.072 103.656 512.244 102.859 513.244 101.703C514.275 100.547 514.791 99 514.791 97.0625C514.791 95.9375 514.541 94.875 514.041 93.875C513.572 92.875 512.822 92.0781 511.791 91.4844C510.791 90.8594 509.806 90.375 508.837 90.0312C507.244 89.4375 505.65 88.9531 504.056 88.5781C502.494 88.1719 500.431 87.5625 497.869 86.75C496.15 86.2188 494.525 85.4688 492.994 84.5C491.462 83.5 490.119 82.1562 488.962 80.4688C487.837 78.7812 487.275 76.4531 487.275 73.4844C487.275 70.4531 488.197 67.8438 490.041 65.6562C491.884 63.4688 494.197 61.9844 496.978 61.2031C499.759 60.3906 502.462 59.9844 505.087 59.9844C508.962 59.9844 512.072 60.4375 514.416 61.3438C516.791 62.2188 518.837 63.2656 520.556 64.4844C521.556 65.2031 521.697 66.0312 520.978 66.9688L518.869 69.7812C518.212 70.6875 517.197 70.6562 515.822 69.6875C514.666 68.875 513.025 68.1094 510.9 67.3906C508.775 66.6719 506.916 66.3125 505.322 66.3125C503.353 66.3125 501.666 66.5312 500.259 66.9688C498.853 67.4062 497.712 68.1562 496.837 69.2188C495.962 70.2812 495.525 71.5312 495.525 72.9688C495.525 74.0625 495.697 75.0469 496.041 75.9219C496.384 76.7656 497.025 77.5469 497.962 78.2656C498.9 78.9844 500.212 79.5625 501.9 80C504.525 80.6875 506.916 81.3125 509.072 81.875C511.259 82.4375 513.228 83.125 514.978 83.9375C517.259 85 519.009 86.1719 520.228 87.4531C521.478 88.7344 522.337 90.125 522.806 91.625C523.275 93.0938 523.509 94.7344 523.509 96.5469C523.509 99.8906 522.509 102.719 520.509 105.031C518.541 107.344 516.337 108.891 513.9 109.672C511.462 110.422 508.525 110.797 505.087 110.797C500.431 110.797 496.431 110.141 493.087 108.828C489.775 107.484 487.634 106.344 486.666 105.406Z" fill="#84A5FB"/>
<path d="M552.312 111C550.75 111 549.969 110.141 549.969 108.422V46.3594C549.969 44.6406 550.75 43.7812 552.312 43.7812H593.328C595.047 43.7812 595.906 44.4844 595.906 45.8906V49.3594C595.906 50.7656 595.047 51.4688 593.328 51.4688H558.969V72.2812H590.516C592.234 72.2812 593.094 72.9844 593.094 74.3906V77.8594C593.094 79.2656 592.234 79.9688 590.516 79.9688H558.969V103.312H594.734C596.453 103.312 597.312 104.016 597.312 105.422V108.891C597.312 110.297 596.453 111 594.734 111H552.312ZM603.596 86.3906C603.596 79.6719 605.221 73.7656 608.471 68.6719C611.721 63.5469 616.471 60.9844 622.721 60.9844C626.314 60.9844 629.189 61.5781 631.346 62.7656C633.502 63.9531 635.439 65.5781 637.158 67.6406H637.252C637.189 66.7031 637.158 65.75 637.158 64.7812V43.9219C637.158 42.5156 637.861 41.8125 639.268 41.8125H643.299C644.705 41.8125 645.408 42.5156 645.408 43.9219V108.891C645.408 110.297 644.705 111 643.299 111H639.361C638.236 111 637.627 110.297 637.533 108.891L637.252 105.141H637.158C635.439 107.203 633.502 108.828 631.346 110.016C629.189 111.203 626.314 111.797 622.721 111.797C616.471 111.797 611.721 109.25 608.471 104.156C605.221 99.0312 603.596 93.1094 603.596 86.3906ZM612.314 86.3906C612.314 92.1406 613.299 96.7969 615.268 100.359C617.268 103.922 620.643 105.703 625.393 105.703C628.768 105.703 631.564 104.562 633.783 102.281C636.033 99.9688 637.158 96.4688 637.158 91.7812V81C637.158 76.3125 636.033 72.8281 633.783 70.5469C631.564 68.2344 628.768 67.0781 625.393 67.0781C620.643 67.0781 617.268 68.8594 615.268 72.4219C613.299 75.9844 612.314 80.6406 612.314 86.3906ZM658.957 111C657.551 111 656.848 110.297 656.848 108.891V63.8906C656.848 62.4844 657.551 61.7812 658.957 61.7812H662.988C664.394 61.7812 665.098 62.4844 665.098 63.8906V108.891C665.098 110.297 664.394 111 662.988 111H658.957ZM658.957 52.875C657.551 52.875 656.848 52.1719 656.848 50.7656V46.7344C656.848 45.3281 657.551 44.625 658.957 44.625H662.988C664.394 44.625 665.098 45.3281 665.098 46.7344V50.7656C665.098 52.1719 664.394 52.875 662.988 52.875H658.957ZM674.568 106.406C673.599 105.5 673.396 104.656 673.959 103.875L676.068 100.922C676.756 99.9844 677.771 100.031 679.115 101.062C680.959 102.469 683.006 103.594 685.256 104.438C687.537 105.281 690.131 105.703 693.037 105.703C694.756 105.703 696.287 105.5 697.631 105.094C698.974 104.656 700.146 103.859 701.146 102.703C702.177 101.547 702.693 100 702.693 98.0625C702.693 96.9375 702.443 95.875 701.943 94.875C701.474 93.875 700.724 93.0781 699.693 92.4844C698.693 91.8594 697.709 91.375 696.74 91.0312C695.146 90.4375 693.552 89.9531 691.959 89.5781C690.396 89.1719 688.334 88.5625 685.771 87.75C684.052 87.2188 682.427 86.4688 680.896 85.5C679.365 84.5 678.021 83.1562 676.865 81.4688C675.74 79.7812 675.177 77.4531 675.177 74.4844C675.177 71.4531 676.099 68.8438 677.943 66.6562C679.787 64.4688 682.099 62.9844 684.881 62.2031C687.662 61.3906 690.365 60.9844 692.99 60.9844C696.865 60.9844 699.974 61.4375 702.318 62.3438C704.693 63.2188 706.74 64.2656 708.459 65.4844C709.459 66.2031 709.599 67.0312 708.881 67.9688L706.771 70.7812C706.115 71.6875 705.099 71.6562 703.724 70.6875C702.568 69.875 700.927 69.1094 698.802 68.3906C696.677 67.6719 694.818 67.3125 693.224 67.3125C691.256 67.3125 689.568 67.5312 688.162 67.9688C686.756 68.4062 685.615 69.1562 684.74 70.2188C683.865 71.2812 683.427 72.5312 683.427 73.9688C683.427 75.0625 683.599 76.0469 683.943 76.9219C684.287 77.7656 684.927 78.5469 685.865 79.2656C686.802 79.9844 688.115 80.5625 689.802 81C692.427 81.6875 694.818 82.3125 696.974 82.875C699.162 83.4375 701.131 84.125 702.881 84.9375C705.162 86 706.912 87.1719 708.131 88.4531C709.381 89.7344 710.24 91.125 710.709 92.625C711.177 94.0938 711.412 95.7344 711.412 97.5469C711.412 100.891 710.412 103.719 708.412 106.031C706.443 108.344 704.24 109.891 701.802 110.672C699.365 111.422 696.427 111.797 692.99 111.797C688.334 111.797 684.334 111.141 680.99 109.828C677.677 108.484 675.537 107.344 674.568 106.406ZM716.148 86.3906C716.148 79.0469 718.086 72.9844 721.961 68.2031C725.867 63.3906 731.57 60.9844 739.07 60.9844C746.57 60.9844 752.258 63.3906 756.133 68.2031C760.039 72.9844 761.992 79.0469 761.992 86.3906C761.992 93.7344 760.039 99.8125 756.133 104.625C752.258 109.406 746.57 111.797 739.07 111.797C731.57 111.797 725.867 109.406 721.961 104.625C718.086 99.8125 716.148 93.7344 716.148 86.3906ZM724.867 86.3906C724.867 92.9531 726.164 97.8125 728.758 100.969C731.351 104.125 734.789 105.703 739.07 105.703C743.351 105.703 746.789 104.125 749.383 100.969C751.976 97.8125 753.273 92.9531 753.273 86.3906C753.273 79.8281 751.976 74.9688 749.383 71.8125C746.789 68.6562 743.351 67.0781 739.07 67.0781C734.789 67.0781 731.351 68.6562 728.758 71.8125C726.164 74.9688 724.867 79.8281 724.867 86.3906ZM772.822 111C771.416 111 770.712 110.297 770.712 108.891V63.8906C770.712 62.4844 771.416 61.7812 772.822 61.7812H776.759C778.166 61.7812 778.869 62.4844 778.869 63.8906V67.6406H779.056C781.087 65.3906 783.275 63.7188 785.619 62.625C787.962 61.5312 790.884 60.9844 794.384 60.9844C800.072 60.9844 804.15 62.5938 806.619 65.8125C809.119 69 810.369 73.375 810.369 78.9375V108.891C810.369 110.297 809.666 111 808.259 111H804.228C802.822 111 802.119 110.297 802.119 108.891V81.1875C802.119 75.0625 801.103 71.1875 799.072 69.5625C797.041 67.9062 794.462 67.0781 791.337 67.0781C787.275 67.0781 784.197 68.2969 782.103 70.7344C780.009 73.1406 778.962 77.2812 778.962 83.1562V108.891C778.962 110.297 778.259 111 776.853 111H772.822Z" fill="#9ECBFF"/>
</svg>
